<svg xmlns="http://www.w3.org/2000/svg" viewBox="0 0 40.49 40.31"><defs><style>.cls-1{fill:#ede315;fill-rule:evenodd;}</style></defs><g id="Layer_2" data-name="Layer 2"><g id="Layer_1-2" data-name="Layer 1"><path class="cls-1" d="M23.36,40.31a1.63,1.63,0,0,0,1.38-.92L29,29a.63.63,0,0,0-.62-.93H20.49a1.57,1.57,0,0,1-1.36-.81c-.2-.44-.27-1.71.28-1.71h9.68a1.66,1.66,0,0,0,1.4-.91L34.69,15a.61.61,0,0,0-.61-.91H14.91a1.6,1.6,0,0,1-1.36-.81c-.2-.45-.27-1.71.28-1.71h21a1.67,1.67,0,0,0,1.4-.92L40.41.92a.61.61,0,0,0-.6-.92H.69A.63.63,0,0,0,.07.93L15.76,39.39a1.63,1.63,0,0,0,1.38.92Z"/></g></g></svg>