<svg xmlns="http://www.w3.org/2000/svg" viewBox="0 0 315.19 43.89"><defs><style>.cls-1{fill:#fff;}</style></defs><g id="Layer_2" data-name="Layer 2"><g id="Layer_1-2" data-name="Layer 1"><path class="cls-1" d="M39.17,42.55H0V2.41H39.22v10.7H11.45v4.55H33.59V27.3H11.45v4.55H39.17Z"/><path class="cls-1" d="M98.19,0V42.55H86.74V23L73,34.36,59.26,23V42.55H47.81V0L73,19.38Z"/><path class="cls-1" d="M107.73,1.87c5.4-.42,12.41-.8,17.56-.8,19.38,0,24.67,5.35,24.67,12.2,0,4.72-2.53,7.45-6.25,9,4.25,1.5,7.21,4.23,7.21,9.15,0,7.12-6.25,12.47-25.63,12.47-5.15,0-12.16-.37-17.56-.8Zm11.46,16c2,.05,4.34.05,7.2.05,9.69,0,12.12-1.07,12.12-3,0-2.08-2.91-3.42-12.12-3.42-2.77,0-5.2.11-7.2.27Zm0,15.31c2,.16,4.43.27,7.2.27,10.16,0,13.07-1.34,13.07-3.43,0-1.93-2.43-3-13.07-3-2.86,0-5.2,0-7.2,0Z"/><path class="cls-1" d="M169.05,2.41v19c0,7.06,4.39,11.29,11.16,11.29s11.17-4.23,11.17-11.29V2.41h11.45V23c0,14.08-10.12,20.93-22.62,20.93S157.59,37,157.59,23V2.41Z"/><path class="cls-1" d="M211.89,1.87c5.39-.48,10.31-.8,14.65-.8,22.9,0,32.21,9.21,32.21,21.41s-9.31,21.41-32.21,21.41c-4.34,0-9.26-.32-14.65-.8Zm11.45,30.89c1.48.11,3.06.16,4.63.16,11.36,0,18.85-3.21,18.85-10.44S239.33,12,228,12c-1.57,0-3.15.06-4.63.16Z"/><path class="cls-1" d="M264,22.48c0-12.2,10.26-21.41,25.62-21.41s25.58,9.21,25.58,21.41-10.26,21.41-25.58,21.41S264,34.69,264,22.48Zm39.27,0c0-6.53-6.2-10.44-13.65-10.44S275.92,16,275.92,22.48s6.2,10.44,13.69,10.44S303.26,29,303.26,22.48Z"/></g></g></svg>